<!-- Generated by IcoMoon.io -->
<svg version="1.1" xmlns="http://www.w3.org/2000/svg" width="768" height="768" viewBox="0 0 768 768">
<title></title>
<g id="icomoon-ignore">
</g>
<path d="M483 256.5v-64.5q0-40.5-29.25-69.75t-69.75-29.25-69.75 29.25-29.25 69.75v64.5h198zM384 544.5q25.5 0 45-19.5t19.5-45-19.5-45-45-19.5-45 19.5-19.5 45 19.5 45 45 19.5zM576 256.5q25.5 0 45 18.75t19.5 44.25v321q0 25.5-19.5 44.25t-45 18.75h-384q-25.5 0-45-18.75t-19.5-44.25v-321q0-25.5 19.5-44.25t45-18.75h31.5v-64.5q0-66 47.25-113.25t113.25-47.25 113.25 47.25 47.25 113.25v64.5h31.5z"></path>
</svg>
